<svg id="visual" viewBox="0 0 960 540" width="960" height="540" xmlns="http://www.w3.org/2000/svg" xmlns:xlink="http://www.w3.org/1999/xlink" version="1.1"><rect x="0" y="0" width="960" height="540" fill="#ffffff"></rect><path d="M688 540L671.7 527.2C655.3 514.3 622.7 488.7 618.7 463C614.7 437.3 639.3 411.7 660 386C680.7 360.3 697.3 334.7 697.2 308.8C697 283 680 257 655.3 231.2C630.7 205.3 598.3 179.7 590.2 154C582 128.3 598 102.7 609 77C620 51.3 626 25.7 629 12.8L632 0L960 0L960 12.8C960 25.7 960 51.3 960 77C960 102.7 960 128.3 960 154C960 179.7 960 205.3 960 231.2C960 257 960 283 960 308.8C960 334.7 960 360.3 960 386C960 411.7 960 437.3 960 463C960 488.7 960 514.3 960 527.2L960 540Z" fill="#ffffff"></path><path d="M632 540L635 527.2C638 514.3 644 488.7 664 463C684 437.3 718 411.7 733 386C748 360.3 744 334.7 724.7 308.8C705.3 283 670.7 257 672 231.2C673.3 205.3 710.7 179.7 710.8 154C711 128.3 674 102.7 671.7 77C669.3 51.3 701.7 25.7 717.8 12.8L734 0L960 0L960 12.8C960 25.7 960 51.3 960 77C960 102.7 960 128.3 960 154C960 179.7 960 205.3 960 231.2C960 257 960 283 960 308.8C960 334.7 960 360.3 960 386C960 411.7 960 437.3 960 463C960 488.7 960 514.3 960 527.2L960 540Z" fill="#b9b9b9"></path><path d="M769 540L774.3 527.2C779.7 514.3 790.3 488.7 788.8 463C787.3 437.3 773.7 411.7 758.7 386C743.7 360.3 727.3 334.7 734.8 308.8C742.3 283 773.7 257 785.7 231.2C797.7 205.3 790.3 179.7 781 154C771.7 128.3 760.3 102.7 760.2 77C760 51.3 771 25.7 776.5 12.8L782 0L960 0L960 12.8C960 25.7 960 51.3 960 77C960 102.7 960 128.3 960 154C960 179.7 960 205.3 960 231.2C960 257 960 283 960 308.8C960 334.7 960 360.3 960 386C960 411.7 960 437.3 960 463C960 488.7 960 514.3 960 527.2L960 540Z" fill="#777777"></path><path d="M776 540L778.3 527.2C780.7 514.3 785.3 488.7 793.8 463C802.3 437.3 814.7 411.7 811.7 386C808.7 360.3 790.3 334.7 793.5 308.8C796.7 283 821.3 257 832.5 231.2C843.7 205.3 841.3 179.7 835.7 154C830 128.3 821 102.7 826 77C831 51.3 850 25.7 859.5 12.8L869 0L960 0L960 12.8C960 25.7 960 51.3 960 77C960 102.7 960 128.3 960 154C960 179.7 960 205.3 960 231.2C960 257 960 283 960 308.8C960 334.7 960 360.3 960 386C960 411.7 960 437.3 960 463C960 488.7 960 514.3 960 527.2L960 540Z" fill="#3b3b3b"></path><path d="M913 540L904.2 527.2C895.3 514.3 877.7 488.7 866.5 463C855.3 437.3 850.7 411.7 855 386C859.3 360.3 872.7 334.7 877 308.8C881.3 283 876.7 257 873.3 231.2C870 205.3 868 179.7 874.7 154C881.3 128.3 896.7 102.7 899.8 77C903 51.3 894 25.7 889.5 12.8L885 0L960 0L960 12.8C960 25.7 960 51.3 960 77C960 102.7 960 128.3 960 154C960 179.7 960 205.3 960 231.2C960 257 960 283 960 308.8C960 334.7 960 360.3 960 386C960 411.7 960 437.3 960 463C960 488.7 960 514.3 960 527.2L960 540Z" fill="#000000"></path></svg>