<svg id="visual" viewBox="0 0 900 900" width="900" height="900" xmlns="http://www.w3.org/2000/svg" xmlns:xlink="http://www.w3.org/1999/xlink" version="1.1"><rect x="0" y="0" width="900" height="900" fill="#ffffff"></rect><path d="M645 900L629.8 878.5C614.7 857 584.3 814 580.7 771.2C577 728.3 600 685.7 619.2 642.8C638.3 600 653.7 557 653.5 514.2C653.3 471.3 637.7 428.7 614.5 385.8C591.3 343 560.7 300 552.8 257.2C545 214.3 560 171.7 570.5 128.8C581 86 587 43 590 21.5L593 0L900 0L900 21.5C900 43 900 86 900 128.8C900 171.7 900 214.3 900 257.2C900 300 900 343 900 385.8C900 428.7 900 471.3 900 514.2C900 557 900 600 900 642.8C900 685.7 900 728.3 900 771.2C900 814 900 857 900 878.5L900 900Z" fill="#ffffff"></path><path d="M592 900L595 878.5C598 857 604 814 622.8 771.2C641.7 728.3 673.3 685.7 687.3 642.8C701.3 600 697.7 557 679.5 514.2C661.3 471.3 628.7 428.7 630 385.8C631.3 343 666.7 300 666.8 257.2C667 214.3 632 171.7 629.7 128.8C627.3 86 657.7 43 672.8 21.5L688 0L900 0L900 21.5C900 43 900 86 900 128.8C900 171.7 900 214.3 900 257.2C900 300 900 343 900 385.8C900 428.7 900 471.3 900 514.2C900 557 900 600 900 642.8C900 685.7 900 728.3 900 771.2C900 814 900 857 900 878.5L900 900Z" fill="#b9b9b9"></path><path d="M721 900L726 878.5C731 857 741 814 739.5 771.2C738 728.3 725 685.7 710.8 642.8C696.7 600 681.3 557 688.5 514.2C695.7 471.3 725.3 428.7 736.7 385.8C748 343 741 300 732.2 257.2C723.3 214.3 712.7 171.7 712.5 128.8C712.3 86 722.7 43 727.8 21.5L733 0L900 0L900 21.5C900 43 900 86 900 128.8C900 171.7 900 214.3 900 257.2C900 300 900 343 900 385.8C900 428.7 900 471.3 900 514.2C900 557 900 600 900 642.8C900 685.7 900 728.3 900 771.2C900 814 900 857 900 878.5L900 900Z" fill="#777777"></path><path d="M727 900L729.2 878.5C731.3 857 735.7 814 743.7 771.2C751.7 728.3 763.3 685.7 760.7 642.8C758 600 741 557 744 514.2C747 471.3 770 428.7 780.3 385.8C790.7 343 788.3 300 783.2 257.2C778 214.3 770 171.7 774.8 128.8C779.7 86 797.3 43 806.2 21.5L815 0L900 0L900 21.5C900 43 900 86 900 128.8C900 171.7 900 214.3 900 257.2C900 300 900 343 900 385.8C900 428.7 900 471.3 900 514.2C900 557 900 600 900 642.8C900 685.7 900 728.3 900 771.2C900 814 900 857 900 878.5L900 900Z" fill="#3b3b3b"></path><path d="M856 900L847.7 878.5C839.3 857 822.7 814 812.2 771.2C801.7 728.3 797.3 685.7 801.5 642.8C805.7 600 818.3 557 822.3 514.2C826.3 471.3 821.7 428.7 818.5 385.8C815.3 343 813.7 300 820 257.2C826.3 214.3 840.7 171.7 843.5 128.8C846.3 86 837.7 43 833.3 21.5L829 0L900 0L900 21.5C900 43 900 86 900 128.8C900 171.7 900 214.3 900 257.2C900 300 900 343 900 385.8C900 428.7 900 471.3 900 514.2C900 557 900 600 900 642.8C900 685.7 900 728.3 900 771.2C900 814 900 857 900 878.5L900 900Z" fill="#000000"></path></svg>